<?xml version="1.0" encoding="utf-8"?>
<!-- Generator: Adobe Illustrator 26.0.3, SVG Export Plug-In . SVG Version: 6.00 Build 0)  -->
<svg version="1.0" id="Layer_1" xmlns="http://www.w3.org/2000/svg" xmlns:xlink="http://www.w3.org/1999/xlink" x="0px" y="0px"
	 viewBox="0 0 963.7 698.6" style="enable-background:new 0 0 963.7 698.6;" xml:space="preserve">
<style type="text/css">
	.st0{fill:#EF3E2B;}
</style>
<polygon class="st0" points="367.6,203.8 367.6,210.7 473.6,270.4 568.7,217.1 568.7,238.8 473.6,292.6 373,235.4 367.6,238.3 
	367.6,279.8 473.6,339.4 568.7,286.2 568.7,307.4 473.6,361.1 373,303.9 367.6,306.9 367.6,314.3 473.6,373.9 579.5,314.3 
	579.5,272.9 574.6,269.9 473.6,327.1 378.9,272.9 378.9,251.7 473.6,304.9 579.5,245.2 579.5,204.3 574.6,201.4 473.6,258.6 
	383.8,207.8 473.6,157 548,198.9 554.4,195 554.4,189.5 473.6,143.7 "/>
<path d="M159.8,538.4c-13.8,0-24.8-11.3-24.8-25.7s11-25.7,24.8-25.7c13.8,0,24.8,11.3,24.8,25.7S174,538.4,159.8,538.4
	 M201.5,552.5V439h-17.7v42.5c0,0.6-0.3,1.2-0.9,1.5c-0.5,0.2-1.1,0.1-1.5-0.3c-5.8-7-15-11-25.4-11c-21.7,0-38.6,18.4-38.6,41.6
	c0,11.3,4,22,11,29.7c7.1,7.7,17.1,12,27.5,11.9c9.7,0.1,19-4.1,25.4-11.3c0.3-0.5,0.9-0.7,1.4-0.4c0,0,0.1,0,0.1,0.1
	c0.6,0.3,0.9,0.9,0.9,1.5v8.6h17.7L201.5,552.5z"/>
<path d="M253.2,538.4c-13.8,0-24.8-11.3-24.8-25.7s11-25.7,24.8-25.7c13.8,0,24.8,11.3,24.8,25.7S267.3,538.4,253.2,538.4
	 M294.5,552.5v-79.3h-17.4v8c0,0.6-0.3,1.2-0.9,1.5c-0.5,0.2-1.1,0.1-1.5-0.3c-5.8-7-15-10.7-25.4-10.7c-21.7,0-38.6,18.4-38.6,41.6
	s16.8,41.6,38.6,41.6c9.8,0.1,19.1-4.2,25.4-11.7c0.3-0.5,1-0.7,1.5-0.3c0,0,0,0,0.1,0c0.6,0.3,0.9,0.9,0.9,1.5v8.6h17.4
	L294.5,552.5z"/>
<path d="M401.3,538.4c-13.8,0-24.8-11.3-24.8-25.7s11-25.7,24.8-25.7s24.8,11.3,24.8,25.7S415.4,538.4,401.3,538.4 M442.7,552.5
	v-79.3h-17.1v8c0,0.6-0.3,1.2-0.9,1.5c-0.5,0.2-1.1,0.1-1.5-0.3c-5.8-7-15-10.7-25.4-10.7c-21.7,0-38.6,18.4-38.6,41.6
	s16.8,41.6,38.6,41.6c9.8,0.1,19.1-4.2,25.4-11.7c0.3-0.5,1-0.7,1.5-0.3c0,0,0,0,0.1,0c0.6,0.3,0.9,0.9,0.9,1.5v8.6h17.1
	L442.7,552.5z"/>
<path d="M472.7,513c0-14.4,11-25.7,24.8-25.7s24.8,11.3,24.8,25.7s-11,25.7-24.8,25.7C483.6,538.4,472.5,526.9,472.7,513 M474.5,543
	h0.6c0.5,0.1,0.9,0.3,1.2,0.6c5.8,7,15,11,25.4,11c21.7,0,38.6-18.4,38.6-41.6c0-11.3-4-22-11-29.7c-7.1-7.7-17.1-12-27.5-11.9
	c-9.7-0.1-19,4-25.4,11.3c-0.3,0.6-0.9,0.6-1.5,0.3c-0.6-0.3-0.9-0.9-0.9-1.5v-42.8h-17.8v113.5h17.5v-8
	C473.7,543.7,474,543.2,474.5,543"/>
<path d="M590.2,489.5c1.4-0.1,2.9,0,4.3,0.3v-18.1c-0.6,0-1.8-0.3-3.1-0.3c-8.9-0.2-17.2,4.5-21.7,12.2c-0.2,0.6-0.9,0.9-1.4,0.7
	c0,0-0.1,0-0.1,0c-0.6-0.3-1.1-0.8-1.2-1.5v-9.8h-17.4v79h17.4v-34.3C567.2,500.2,576.1,489.5,590.2,489.5"/>
<rect x="605.5" y="473.2" width="17.8" height="79"/>
<path d="M614,439c-5.9,0-10.7,4.8-10.7,10.7s4.8,10.7,10.7,10.7c5.9,0,10.7-4.8,10.7-10.7c0,0,0,0,0,0
	C624.7,443.8,619.9,439,614,439"/>
<path d="M674.9,471.4c-24.2,0-41.9,17.4-41.9,41.6c0,11.6,4,22.3,11.6,29.7c7.7,7.7,18,11.6,30,11.6c9.8,0,17.4-1.8,31.8-12.5
	l-9.8-10.4c-7,4.6-13.8,7-20.2,7c-14.7,0-25.7-11-25.7-25.4s11-25.4,25.7-25.4c7,0,13.5,2.1,19.9,7l11-10.4
	C694.5,472.5,682.9,471.3,674.9,471.4"/>
<path d="M737.4,517.6c0.2-0.2,0.6-0.4,0.9-0.3l0,0c0.5,0.1,0.9,0.3,1.2,0.6l27.8,34.6h21.5l-36.1-43.8c-0.6-0.6-0.3-1.5,0-2.1
	l33.4-33.4h-21.5L735.8,502c-0.4,0.4-1,0.5-1.5,0.3c-0.6-0.3-0.9-0.9-0.9-1.5v-62.1h-17.1v113.5h17.5v-30.6c0.1-0.5,0.3-0.9,0.6-1.2
	L737.4,517.6z"/>
<path d="M817.6,554.3c14.4,0,28.8-8.6,28.8-25.1c0-10.7-6.7-18.4-20.8-23l-9.5-3.1c-6.4-2.2-9.5-5.2-9.5-9.5c0-4.9,4.3-8,10.4-8
	c5.8,0,11,3.7,14.4,10.4l14.1-7.7c-5.2-10.7-15.9-17.1-28.2-17.1c-15.6,0-26.9,10.1-26.9,23.9c0,11,6.4,18.4,19.9,22.7l9.8,3.1
	c6.7,2.1,9.8,4.9,9.8,9.5c0,6.7-6.1,9.2-11.6,9.2c-7,0-13.5-4.6-16.5-11.9l-14.1,7.3C791.9,546.9,803.5,554.3,817.6,554.3"/>
<path d="M343.2,553.4c4.4-0.1,8.8-0.4,13.2-0.9v-15c-2.9,0.4-5.9,0.6-8.9,0.6c-7,0-12.5-1.2-12.5-16.5v-32.4
	c-0.1-0.8,0.6-1.5,1.3-1.5c0.1,0,0.1,0,0.2,0h17.1v-14.4h-17.1c-0.8,0.1-1.5-0.6-1.5-1.3c0-0.1,0-0.1,0-0.2v-22.6h-17.5v23
	c0.1,0.8-0.6,1.5-1.3,1.5c-0.1,0-0.1,0-0.2,0h-12.2v14.4H316c0.8,0,1.5,0.6,1.5,1.4c0,0.1,0,0.1,0,0.2v36.7
	C317.8,553.4,336.2,553.4,343.2,553.4"/>
</svg>
