<?xml version="1.0" encoding="utf-8"?>
<!-- Generator: Adobe Illustrator 16.0.0, SVG Export Plug-In . SVG Version: 6.00 Build 0)  -->
<!DOCTYPE svg PUBLIC "-//W3C//DTD SVG 1.1//EN" "http://www.w3.org/Graphics/SVG/1.1/DTD/svg11.dtd">
<svg version="1.1" id="Layer_1" xmlns="http://www.w3.org/2000/svg" xmlns:xlink="http://www.w3.org/1999/xlink" x="0px" y="0px"
	 width="1015px" height="1015px" viewBox="0 0 1015 1015" enable-background="new 0 0 1015 1015" xml:space="preserve">
<g>
	<path fill="#31BEF0" d="M104.11,472.31c3.022-3.02,4.536-6.548,4.536-11.083v-57.948c0-8.061-6.552-14.611-14.614-14.611
		c-8.063,0-14.613,6.55-14.613,14.611v33.259l-28.217-16.63c-7.054-4.533-16.125-2.519-20.154,4.535
		c-4.535,7.056-2.521,16.125,4.533,20.156c0.504,0,0.504,0.503,1.01,0.503l50.388,29.225
		C92.017,477.854,99.575,476.848,104.11,472.31L104.11,472.31z M82.443,507.583c0-5.543-2.521-10.582-7.56-13.103l-50.386-29.225
		c-7.056-4.533-16.125-2.519-20.156,4.535c-4.536,7.057-2.519,16.125,4.535,20.156c0.504,0,0.504,0.504,1.007,0.504l28.721,16.628
		L9.883,523.708c-7.054,4.029-10.078,12.597-6.046,20.156c4.032,7.558,12.597,10.075,20.154,6.044c0.506,0,0.506,0,1.007,0
		l50.391-29.223C79.922,518.165,82.443,513.126,82.443,507.583L82.443,507.583z M108.646,553.437v58.451
		c0,8.062-6.552,14.611-14.614,14.611c-8.063,0-14.613-6.55-14.613-14.611v-32.753l-28.721,16.629
		c-7.054,4.533-16.125,2.519-20.154-4.535c-4.536-7.055-2.521-16.125,4.533-20.156c0.503,0,0.503-0.504,1.007-0.504l50.391-29.225
		c7.054-4.032,16.628-1.512,20.658,6.046C108.14,548.9,109.147,551.422,108.646,553.437L108.646,553.437L108.646,553.437z
		 M134.846,554.949v56.938c0,8.062,6.55,14.611,14.613,14.611c8.061,0,14.611-6.55,14.611-14.611v-32.753l28.217,16.125
		c7.054,4.533,16.125,2.519,20.156-4.535c4.536-7.057,2.519-16.125-4.535-20.156c-0.504,0-0.504-0.504-1.007-0.504l-50.389-29.225
		c-7.054-4.032-16.125-1.512-20.156,5.543C135.35,548.9,134.342,552.429,134.846,554.949L134.846,554.949L134.846,554.949z
		 M161.049,507.583c0-5.543,2.518-10.582,7.557-13.103l50.389-29.225c7.054-4.533,16.125-2.519,20.156,4.535
		c4.533,7.057,2.519,16.125-4.536,20.156c-0.503,0-0.503,0.504-1.007,0.504l-28.723,16.628l28.723,16.629
		c7.054,4.029,10.076,12.597,6.046,20.156c-4.031,7.054-12.599,10.075-20.156,6.044c-0.503,0-0.503-0.504-1.007-0.504
		l-50.388-29.225C163.567,518.165,160.545,513.126,161.049,507.583L161.049,507.583z M134.846,460.219v-56.94
		c0-8.061,6.55-14.611,14.613-14.611c8.061,0,14.611,6.55,14.611,14.611v32.753l28.217-16.125
		c7.054-4.533,16.125-2.519,20.156,4.535c4.536,7.056,2.519,16.125-4.535,20.156c-0.504,0-0.504,0.503-1.007,0.503l-50.389,29.225
		c-7.054,4.032-16.125,1.512-20.156-5.542C135.35,466.266,134.342,463.241,134.846,460.219L134.846,460.219L134.846,460.219z
		 M127.792,481.381c-1.007-1.006-2.017-1.512-3.528-1.512h-5.039c-1.511,0-2.519,0.506-3.526,1.512l-20.156,20.156
		c-1.007,1.007-1.511,2.015-1.511,3.525v5.041c0,1.512,0.504,2.519,1.511,3.526l20.156,20.156c1.007,1.007,2.015,1.511,3.526,1.511
		h5.039c1.511,0,2.521-0.504,3.528-1.511l20.154-20.156c0.504-1.008,1.009-2.519,1.009-3.526v-5.041
		c0-1.511-0.505-2.519-1.513-3.525L127.792,481.381L127.792,481.381L127.792,481.381z M124.768,499.019
		c-0.504-0.506-1.511-1.01-2.519-1.01l0,0c-1.01,0-2.017,0.504-2.519,1.01l-6.048,6.044c-0.504,0.504-1.008,1.514-1.008,2.521l0,0
		c0,1.008,0.504,2.017,1.008,2.521l6.048,6.045c0.501,0.503,1.509,1.009,2.519,1.009l0,0c1.007,0,2.015-0.506,2.519-1.009
		l6.046-6.045c0.503-0.504,1.009-1.513,1.009-2.521l0,0c0-1.007-0.506-2.017-1.009-2.521L124.768,499.019L124.768,499.019z"/>
	<path fill="#31BEF0" d="M286.809,546.365c5.579,2.535,12.173,4.058,18.259,4.058c7.608,0.508,15.721-2.027,21.808-6.593
		c6.086-4.059,9.638-11.158,9.638-18.259c0-16.737-14.708-20.286-29.924-25.358c-10.143-3.552-21.302-6.087-21.302-14.708
		c0-10.651,13.187-15.216,20.286-15.216c17.246,0,21.302,13.694,25.867,9.637c4.564-4.057-12.173-17.245-24.851-17.245
		c-7.608-0.506-15.216,1.521-21.302,5.581c-6.086,3.549-10.143,10.143-9.637,17.749c-0.506,17.753,21.302,20.796,30.939,24.345
		c9.635,3.551,20.286,7.103,20.794,15.724c0,12.173-15.216,16.229-21.81,16.229c-19.272,0-24.851-11.159-28.402-7.607
		C273.623,538.252,277.679,541.801,286.809,546.365L286.809,546.365L286.809,546.365z M416.646,546.365
		c0.506,2.535,2.536,4.058,4.565,4.058c2.027,0,3.551-2.027,4.057-4.058V498.69c0-19.78-15.724-35.502-35.502-35.502
		c-10.651,0-20.794,4.565-27.388,12.681v-8.624c0-2.535-2.027-4.057-4.057-4.057c-2.029,0-4.059,2.029-4.059,4.057v80.134
		c0,0,0,0,0,0.508v0.509c0.51,1.014,1.524,2.027,3.043,2.535h1.523c1.522,0,2.536-0.508,3.041-1.521
		c0.508-0.509,1.016-1.014,1.016-2.03V498.69c0-14.707,12.172-26.88,27.386-26.88c14.71,0,26.88,12.173,26.88,26.88l0,0
		L416.646,546.365L416.646,546.365L416.646,546.365z M440.99,506.807c1.016,22.821,20.794,40.572,43.618,39.053
		c22.824-1.016,40.574-20.796,39.052-43.617c-1.014-22.316-19.272-39.562-41.588-39.562
		C459.249,463.694,440.484,482.969,440.99,506.807L440.99,506.807z M702.694,434.281h-0.508c-4.06-0.508-8.116,0.506-11.159,3.549
		c-3.041,4.565-4.057,9.635-3.549,14.708v9.129h12.172c2.536,0,4.058,1.521,4.563,4.057l0,0c0,2.538-2.027,4.565-4.563,4.565
		h-12.172v76.076c0,2.535-1.521,4.058-4.059,4.565l0,0c-2.535,0-4.563-1.521-4.563-4.058c0,0,0,0,0-0.508v-76.076h-11.668
		c-2.535,0-4.563-2.027-4.563-4.565c0-2.535,2.027-4.057,4.057-4.057l0,0h11.666v-9.129c-0.509-7.101,1.521-14.708,5.578-20.287
		c4.564-4.567,11.158-7.102,17.242-6.594h2.538c2.535,0,4.564,2.027,4.564,4.564c0,2.536-2.029,4.565-4.564,4.565L702.694,434.281
		L702.694,434.281z M449.614,503.256c1.014-18.259,16.735-32.967,34.994-31.953c18.259,1.016,31.95,17.751,30.936,36.01
		c-1.014,17.245-16.734,30.938-33.979,30.938C462.8,537.236,449.105,522.021,449.614,503.256L449.614,503.256z M567.275,550.423
		c1.521,0,3.045-1.014,3.551-2.536c0,0,0,0,0-0.508l20.287-48.18l20.288,48.688c0.506,1.522,2.027,2.536,3.552,3.044h0.506
		c1.014,0,2.029-0.508,2.537-1.014c0.506-0.508,1.014-1.017,1.52-2.03l29.418-78.611c1.014-2.03,0-4.565-2.538-5.581
		c-2.027-1.014-4.564,0-5.578,2.537l-25.358,69.483l-20.287-48.181c-1.016-1.523-2.535-2.537-4.059-2.537
		c-1.52,0-3.549,1.014-4.057,2.537l-20.287,48.181l-25.358-69.483c-1.014-2.029-3.552-3.043-5.581-2.537l0,0
		c-2.027,1.016-3.041,3.551-2.027,5.581l29.416,78.611c0.508,1.014,1.014,1.522,1.521,2.03l0.508,0.506
		C566.262,549.917,566.77,549.917,567.275,550.423L567.275,550.423L567.275,550.423z M726.023,545.859
		c0,2.536,2.027,4.563,4.564,4.563c2.535,0,4.565-2.027,4.565-4.563V429.208c0-2.537-2.03-4.564-4.565-4.564
		c-2.537,0-4.564,2.027-4.564,4.564V545.859L726.023,545.859z M830.503,462.681c-2.535,0-4.06,2.029-4.565,4.057l0,0v12.681
		c-7.607-10.65-19.78-17.243-32.967-17.243c-24.345,1.014-43.109,21.809-41.588,46.151c1.014,22.823,19.272,40.574,41.588,41.591
		c13.187,0,25.359-6.595,32.967-17.245v13.188c0.506,2.536,2.536,4.058,4.565,4.058c2.027,0,3.549-2.03,4.057-4.058v-79.122
		C834.56,464.71,832.53,462.681,830.503,462.681L830.503,462.681L830.503,462.681L830.503,462.681z M796.015,542.309
		c-19.78,1.521-35.503-13.694-37.024-33.475s12.173-36.008,31.443-37.531c19.78-1.521,34.49,13.188,35.504,32.967
		c0,1.016,0,2.029,0,2.537c0.506,18.765-14.202,34.486-32.967,34.994h3.044V542.309z M854.34,545.859
		c0,2.536,2.027,4.563,4.564,4.563c2.536,0,4.565-2.027,4.565-4.563v-20.288l17.751-17.751l33.473,40.575
		c0.508,1.014,2.029,1.521,3.551,1.521c2.535,0,4.057-1.521,4.564-4.058c0-1.016-0.508-2.537-1.016-3.043l-33.98-41.082
		l33.98-32.459c1.521-2.03,1.521-4.565-0.506-6.087c-1.521-1.521-4.057-1.521-5.58,0l-52.237,50.718v-84.698
		c0-2.537-2.029-4.564-4.565-4.564c-2.537,0-4.564,2.027-4.564,4.564l0,0V545.859L854.34,545.859L854.34,545.859z M1011.564,528.614
		c1.014-2.029,0.508-4.564-1.521-6.086c-2.029-1.014-4.565-0.508-5.579,1.521l0,0c-5.578,10.144-16.229,17.243-28.401,17.751h-4.06
		c-18.257-0.508-33.473-15.216-33.473-33.475h72.021c2.027,0,4.057-1.52,4.057-3.549l0,0v-1.014
		c-2.535-23.332-23.329-40.575-46.661-38.04c-23.329,2.538-40.574,23.33-38.037,46.661c2.029,21.809,20.288,38.038,42.094,38.546
		h4.06C991.278,549.409,1004.464,541.293,1011.564,528.614L1011.564,528.614L1011.564,528.614z M972.511,473.332
		c16.229,0,30.432,10.143,32.967,26.372h-66.441C942.082,483.475,955.775,473.332,972.511,473.332L972.511,473.332z"/>
</g>
</svg>
